solid exported
	facet normal 0.8436329009116652 0.22593075192594825 0.4870716824385752
		outer loop
			vertex 1.05 0 0.08660254037844387
			vertex 1.1 0 0
			vertex 0.9094659991257362 0.5247586077752575 0.08660254037844387
		endloop
	endfacet
	facet normal 0.8436329009116655 0.22593075192594844 0.4870716824385748
		outer loop
			vertex 1.1 0 0
			vertex 0.9527739038460094 0.5497471129074126 0
			vertex 0.9094659991257362 0.5247586077752575 0.08660254037844387
		endloop
	endfacet
	facet normal 0.6178060307511364 0.6173142510374942 0.48707168243857474
		outer loop
			vertex 0.9094659991257362 0.5247586077752575 0.08660254037844387
			vertex 0.9527739038460094 0.5497471129074126 0
			vertex 0.5254826734586161 0.9090478314669617 0.08660254037844387
		endloop
	endfacet
	facet normal 0.6178060307511363 0.6173142510374943 0.48707168243857474
		outer loop
			vertex 0.9527739038460094 0.5497471129074126 0
			vertex 0.5505056579090264 0.9523358234415789 0
			vertex 0.5254826734586161 0.9090478314669617 0.08660254037844387
		endloop
	endfacet
	facet normal 0.2266024877035488 0.8434527187299947 0.48707168243857474
		outer loop
			vertex 0.5254826734586161 0.9090478314669617 0.08660254037844387
			vertex 0.5505056579090264 0.9523358234415789 0
			vertex 0.0008361430462699265 1.0499996670784264 0.08660254037844387
		endloop
	endfacet
	facet normal 0.22660248770354882 0.8434527187299947 0.4870716824385745
		outer loop
			vertex 0.5505056579090264 0.9523358234415789 0
			vertex 0.0008759593818065898 1.099999651225018 0
			vertex 0.0008361430462699265 1.0499996670784264 0.08660254037844387
		endloop
	endfacet
	facet normal -0.22525887287745003 0.8438125481150641 0.48707168243857446
		outer loop
			vertex 0.0008361430462699265 1.0499996670784264 0.08660254037844387
			vertex 0.0008759593818065898 1.099999651225018 0
			vertex -0.5240342093234008 0.909883590059079 0.08660254037844387
		endloop
	endfacet
	facet normal -0.22525887287744967 0.8438125481150637 0.4870716824385756
		outer loop
			vertex 0.0008759593818065898 1.099999651225018 0
			vertex -0.5489882192911818 0.9532113800618924 0
			vertex -0.5240342093234008 0.909883590059079 0.08660254037844387
		endloop
	endfacet
	facet normal -0.6168220798624575 0.6182974186915289 0.4870716824385753
		outer loop
			vertex -0.5240342093234008 0.909883590059079 0.08660254037844387
			vertex -0.5489882192911818 0.9532113800618924 0
			vertex -0.9086290873479308 0.5262064059143202 0.08660254037844387
		endloop
	endfacet
	facet normal -0.6168220798624579 0.618297418691529 0.48707168243857485
		outer loop
			vertex -0.5489882192911818 0.9532113800618924 0
			vertex -0.9518971391264037 0.5512638538150021 0
			vertex -0.9086290873479308 0.5262064059143202 0.08660254037844387
		endloop
	endfacet
	facet normal -0.8432720016843114 0.22727407978427883 0.48707168243857496
		outer loop
			vertex -0.9086290873479308 0.5262064059143202 0.08660254037844387
			vertex -0.9518971391264037 0.5512638538150021 0
			vertex -1.0499986683139164 0.0016722855623111698 0.08660254037844387
		endloop
	endfacet
	facet normal -0.8432720016843113 0.22727407978427885 0.4870716824385753
		outer loop
			vertex -0.9518971391264037 0.5512638538150021 0
			vertex -1.0999986049002934 0.001751918208135511 0
			vertex -1.0499986683139164 0.0016722855623111698 0.08660254037844387
		endloop
	endfacet
	facet normal -0.8439916602262691 -0.22458685098411632 0.48707168243857524
		outer loop
			vertex -1.0499986683139164 0.0016722855623111698 0.08660254037844387
			vertex -1.0999986049002934 0.001751918208135511 0
			vertex -0.9103006040021805 -0.5233094785624138 0.08660254037844387
		endloop
	endfacet
	facet normal -0.843991660226269 -0.22458685098411624 0.4870716824385757
		outer loop
			vertex -1.0999986049002934 0.001751918208135511 0
			vertex -0.9536482518118082 -0.5482289775415764 0
			vertex -0.9103006040021805 -0.5233094785624138 0.08660254037844387
		endloop
	endfacet
	facet normal -0.6187884145470651 -0.6163295175381309 0.48707168243857546
		outer loop
			vertex -0.9103006040021805 -0.5233094785624138 0.08660254037844387
			vertex -0.9536482518118082 -0.5482289775415764 0
			vertex -0.526929804683425 -0.9082097670341844 0.08660254037844387
		endloop
	endfacet
	facet normal -0.618788414547065 -0.6163295175381308 0.4870716824385754
		outer loop
			vertex -0.9536482518118082 -0.5482289775415764 0
			vertex -0.5520217001445406 -0.9514578511786694 0
			vertex -0.526929804683425 -0.9082097670341844 0.08660254037844387
		endloop
	endfacet
	facet normal -0.22794552774225832 -0.8430907498892153 0.4870716824385753
		outer loop
			vertex -0.526929804683425 -0.9082097670341844 0.08660254037844387
			vertex -0.5520217001445406 -0.9514578511786694 0
			vertex -0.0025084270178956157 -1.0499970037071038 0.08660254037844387
		endloop
	endfacet
	facet normal -0.2279455277422583 -0.8430907498892147 0.487071682438576
		outer loop
			vertex -0.5520217001445406 -0.9514578511786694 0
			vertex -0.0026278759235096928 -1.0999968610264899 0
			vertex -0.0025084270178956157 -1.0499970037071038 0.08660254037844387
		endloop
	endfacet
	facet normal 0.2239146866721009 -0.8441702371316996 0.48707168243857607
		outer loop
			vertex -0.0025084270178956157 -1.0499970037071038 0.08660254037844387
			vertex -0.0026278759235096928 -1.0999968610264899 0
			vertex 0.5225844159518738 -0.9107170406905973 0.08660254037844387
		endloop
	endfacet
	facet normal 0.22391468667210135 -0.8441702371317001 0.4870716824385749
		outer loop
			vertex -0.0026278759235096928 -1.0999968610264899 0
			vertex 0.5474693881400582 -0.954084518818721 0
			vertex 0.5225844159518738 -0.9107170406905973 0.08660254037844387
		endloop
	endfacet
	facet normal 0.6158365643768656 -0.619279018006387 0.4870716824385746
		outer loop
			vertex 0.5225844159518738 -0.9107170406905973 0.08660254037844387
			vertex 0.5474693881400582 -0.954084518818721 0
			vertex 0.9077898707916291 -0.5276528693071965 0.08660254037844387
		endloop
	endfacet
	facet normal 0.6158365643768654 -0.6192790180063867 0.4870716824385752
		outer loop
			vertex 0.5474693881400582 -0.954084518818721 0
			vertex 0.9510179598769448 -0.552779196417063 0
			vertex 0.9077898707916291 -0.5276528693071965 0.08660254037844387
		endloop
	endfacet
	facet normal 0.8429089634596445 -0.22861683115169668 0.48707168243857524
		outer loop
			vertex 0.9077898707916291 -0.5276528693071965 0.08660254037844387
			vertex 0.9510179598769448 -0.552779196417063 0
			vertex 1.049994673259044 -0.00334456688279489 0.08660254037844387
		endloop
	endfacet
	facet normal 0.8429089634596441 -0.22861683115169676 0.48707168243857624
		outer loop
			vertex 0.9510179598769448 -0.552779196417063 0
			vertex 1.099994419604713 -0.00350383197245179 0
			vertex 1.049994673259044 -0.00334456688279489 0.08660254037844387
		endloop
	endfacet
	facet normal 2.775557561562892e-16 7.433135979168224e-17 1
		outer loop
			vertex 0.9500000000000001 0 0.08660254037844389
			vertex 1.05 0 0.08660254037844387
			vertex 0.8228501896851899 0.4747815975109473 0.08660254037844389
		endloop
	endfacet
	facet normal 2.77555756156289e-16 7.433135979168214e-17 1
		outer loop
			vertex 1.05 0 0.08660254037844387
			vertex 0.9094659991257362 0.5247586077752575 0.08660254037844387
			vertex 0.8228501896851899 0.4747815975109473 0.08660254037844389
		endloop
	endfacet
	facet normal 2.0325857353090824e-16 2.0309677769514272e-16 1
		outer loop
			vertex 0.8228501896851899 0.4747815975109473 0.08660254037844389
			vertex 0.9094659991257362 0.5247586077752575 0.08660254037844387
			vertex 0.4754367045577956 0.8224718475177272 0.08660254037844389
		endloop
	endfacet
	facet normal 2.0325857353090831e-16 2.0309677769514281e-16 1
		outer loop
			vertex 0.9094659991257362 0.5247586077752575 0.08660254037844387
			vertex 0.5254826734586161 0.9090478314669617 0.08660254037844387
			vertex 0.4754367045577956 0.8224718475177272 0.08660254037844389
		endloop
	endfacet
	facet normal 7.455236128591937e-17 2.7749647610494743e-16 1
		outer loop
			vertex 0.4754367045577956 0.8224718475177272 0.08660254037844389
			vertex 0.5254826734586161 0.9090478314669617 0.08660254037844387
			vertex 0.0007565103751966002 0.9499996987852429 0.08660254037844389
		endloop
	endfacet
	facet normal 7.455236128591936e-17 2.774964761049475e-16 1
		outer loop
			vertex 0.5254826734586161 0.9090478314669617 0.08660254037844387
			vertex 0.0008361430462699265 1.0499996670784264 0.08660254037844387
			vertex 0.0007565103751966002 0.9499996987852429 0.08660254037844389
		endloop
	endfacet
	facet normal -7.411031116122929e-17 2.77614860199442e-16 1
		outer loop
			vertex 0.0007565103751966002 0.9499996987852429 0.08660254037844389
			vertex 0.0008361430462699265 1.0499996670784264 0.08660254037844387
			vertex -0.47412618938783885 0.8232280100534525 0.08660254037844389
		endloop
	endfacet
	facet normal -7.411031116122931e-17 2.7761486019944203e-16 1
		outer loop
			vertex 0.0008361430462699265 1.0499996670784264 0.08660254037844387
			vertex -0.5240342093234008 0.909883590059079 0.08660254037844387
			vertex -0.47412618938783885 0.8232280100534525 0.08660254037844389
		endloop
	endfacet
	facet normal -2.0293485306833192e-16 2.0342024047302784e-16 1
		outer loop
			vertex -0.47412618938783885 0.8232280100534525 0.08660254037844389
			vertex -0.5240342093234008 0.909883590059079 0.08660254037844387
			vertex -0.822092983790985 0.47609151011295636 0.08660254037844389
		endloop
	endfacet
	facet normal -2.0293485306833197e-16 2.0342024047302789e-16 1
		outer loop
			vertex -0.5240342093234008 0.909883590059079 0.08660254037844387
			vertex -0.9086290873479308 0.5262064059143202 0.08660254037844387
			vertex -0.822092983790985 0.47609151011295636 0.08660254037844389
		endloop
	endfacet
	facet normal -2.7743702008300885e-16 7.477331550379571e-17 1
		outer loop
			vertex -0.822092983790985 0.47609151011295636 0.08660254037844389
			vertex -0.9086290873479308 0.5262064059143202 0.08660254037844387
			vertex -0.9499987951411626 0.001513020270662487 0.08660254037844389
		endloop
	endfacet
	facet normal -2.7743702008300904e-16 7.477331550379571e-17 1
		outer loop
			vertex -0.9086290873479308 0.5262064059143202 0.08660254037844387
			vertex -1.0499986683139164 0.0016722855623111698 0.08660254037844387
			vertex -0.9499987951411626 0.001513020270662487 0.08660254037844389
		endloop
	endfacet
	facet normal -2.776737881969264e-16 -7.388921553473571e-17 1
		outer loop
			vertex -0.9499987951411626 0.001513020270662487 0.08660254037844389
			vertex -1.0499986683139164 0.0016722855623111698 0.08660254037844387
			vertex -0.8236053083829252 -0.4734704806040887 0.08660254037844389
		endloop
	endfacet
	facet normal -2.776737881969261e-16 -7.388921553473559e-17 1
		outer loop
			vertex -1.0499986683139164 0.0016722855623111698 0.08660254037844387
			vertex -0.9103006040021805 -0.5233094785624138 0.08660254037844387
			vertex -0.8236053083829252 -0.4734704806040887 0.08660254037844389
		endloop
	endfacet
	facet normal -2.0358177841898247e-16 -2.027727997531579e-16 1
		outer loop
			vertex -0.8236053083829252 -0.4734704806040887 0.08660254037844389
			vertex -0.9103006040021805 -0.5233094785624138 0.08660254037844387
			vertex -0.4767460137611941 -0.8217135987452145 0.08660254037844389
		endloop
	endfacet
	facet normal -2.0358177841898255e-16 -2.0277279975315805e-16 1
		outer loop
			vertex -0.9103006040021805 -0.5233094785624138 0.08660254037844387
			vertex -0.526929804683425 -0.9082097670341844 0.08660254037844387
			vertex -0.4767460137611941 -0.8217135987452145 0.08660254037844389
		endloop
	endfacet
	facet normal -7.499422230519618e-17 -2.773773881281762e-16 1
		outer loop
			vertex -0.4767460137611941 -0.8217135987452145 0.08660254037844389
			vertex -0.526929804683425 -0.9082097670341844 0.08660254037844387
			vertex -0.002269529206667462 -0.9499972890683321 0.08660254037844389
		endloop
	endfacet
	facet normal -7.49942223051962e-17 -2.7737738812817636e-16 1
		outer loop
			vertex -0.526929804683425 -0.9082097670341844 0.08660254037844387
			vertex -0.0025084270178956157 -1.0499970037071038 0.08660254037844387
			vertex -0.002269529206667462 -0.9499972890683321 0.08660254037844389
		endloop
	endfacet
	facet normal 7.366807305240591e-17 -2.777325401113732e-16 1
		outer loop
			vertex -0.002269529206667462 -0.9499972890683321 0.08660254037844389
			vertex -0.0025084270178956157 -1.0499970037071038 0.08660254037844387
			vertex 0.4728144715755048 -0.8239820844343501 0.08660254037844389
		endloop
	endfacet
	facet normal 7.366807305240585e-17 -2.7773254011137317e-16 1
		outer loop
			vertex -0.0025084270178956157 -1.0499970037071038 0.08660254037844387
			vertex 0.5225844159518738 -0.9107170406905973 0.08660254037844387
			vertex 0.4728144715755048 -0.8239820844343501 0.08660254037844389
		endloop
	endfacet
	facet normal 2.0261061785238485e-16 -2.0374318726633514e-16 1
		outer loop
			vertex 0.4728144715755048 -0.8239820844343501 0.08660254037844389
			vertex 0.5225844159518738 -0.9107170406905973 0.08660254037844387
			vertex 0.8213336926209978 -0.4774002150874635 0.08660254037844389
		endloop
	endfacet
	facet normal 2.0261061785238477e-16 -2.037431872663351e-16 1
		outer loop
			vertex 0.5225844159518738 -0.9107170406905973 0.08660254037844387
			vertex 0.9077898707916291 -0.5276528693071965 0.08660254037844387
			vertex 0.8213336926209978 -0.4774002150874635 0.08660254037844389
		endloop
	endfacet
	facet normal 2.7731758027826416e-16 -7.521508155003548e-17 1
		outer loop
			vertex 0.8213336926209978 -0.4774002150874635 0.08660254037844389
			vertex 0.9077898707916291 -0.5276528693071965 0.08660254037844387
			vertex 0.9499951805677065 -0.0030260367034810913 0.08660254037844389
		endloop
	endfacet
	facet normal 2.773175802782643e-16 -7.52150815500355e-17 1
		outer loop
			vertex 0.9077898707916291 -0.5276528693071965 0.08660254037844387
			vertex 1.049994673259044 -0.00334456688279489 0.08660254037844387
			vertex 0.9499951805677065 -0.0030260367034810913 0.08660254037844389
		endloop
	endfacet
	facet normal -0.8436329009116652 -0.22593075192594828 0.4870716824385752
		outer loop
			vertex 0.9 0 1.2246467991473533e-17
			vertex 0.9500000000000001 0 0.08660254037844389
			vertex 0.7795422849649167 0.44979309237879217 1.2246467991473533e-17
		endloop
	endfacet
	facet normal -0.8436329009116655 -0.2259307519259485 0.48707168243857474
		outer loop
			vertex 0.9500000000000001 0 0.08660254037844389
			vertex 0.8228501896851899 0.4747815975109473 0.08660254037844389
			vertex 0.7795422849649167 0.44979309237879217 1.2246467991473533e-17
		endloop
	endfacet
	facet normal -0.6178060307511363 -0.6173142510374942 0.4870716824385746
		outer loop
			vertex 0.7795422849649167 0.44979309237879217 1.2246467991473533e-17
			vertex 0.8228501896851899 0.4747815975109473 0.08660254037844389
			vertex 0.45041372010738523 0.77918385554311 1.2246467991473533e-17
		endloop
	endfacet
	facet normal -0.6178060307511363 -0.617314251037494 0.48707168243857507
		outer loop
			vertex 0.8228501896851899 0.4747815975109473 0.08660254037844389
			vertex 0.4754367045577956 0.8224718475177272 0.08660254037844389
			vertex 0.45041372010738523 0.77918385554311 1.2246467991473533e-17
		endloop
	endfacet
	facet normal -0.22660248770354874 -0.8434527187299946 0.48707168243857474
		outer loop
			vertex 0.45041372010738523 0.77918385554311 1.2246467991473533e-17
			vertex 0.4754367045577956 0.8224718475177272 0.08660254037844389
			vertex 0.000716694039659937 0.8999997146386511 1.2246467991473533e-17
		endloop
	endfacet
	facet normal -0.22660248770354874 -0.8434527187299943 0.4870716824385752
		outer loop
			vertex 0.4754367045577956 0.8224718475177272 0.08660254037844389
			vertex 0.0007565103751966002 0.9499996987852429 0.08660254037844389
			vertex 0.000716694039659937 0.8999997146386511 1.2246467991473533e-17
		endloop
	endfacet
	facet normal 0.22525887287744983 -0.8438125481150637 0.4870716824385753
		outer loop
			vertex 0.000716694039659937 0.8999997146386511 1.2246467991473533e-17
			vertex 0.0007565103751966002 0.9499996987852429 0.08660254037844389
			vertex -0.4491721794200578 0.7799002200506392 1.2246467991473533e-17
		endloop
	endfacet
	facet normal 0.22525887287744997 -0.8438125481150639 0.48707168243857485
		outer loop
			vertex 0.0007565103751966002 0.9499996987852429 0.08660254037844389
			vertex -0.47412618938783885 0.8232280100534525 0.08660254037844389
			vertex -0.4491721794200578 0.7799002200506392 1.2246467991473533e-17
		endloop
	endfacet
	facet normal 0.6168220798624577 -0.618297418691529 0.4870716824385749
		outer loop
			vertex -0.4491721794200578 0.7799002200506392 1.2246467991473533e-17
			vertex -0.47412618938783885 0.8232280100534525 0.08660254037844389
			vertex -0.7788249320125121 0.45103406221227443 1.2246467991473533e-17
		endloop
	endfacet
	facet normal 0.6168220798624576 -0.618297418691529 0.487071682438575
		outer loop
			vertex -0.47412618938783885 0.8232280100534525 0.08660254037844389
			vertex -0.822092983790985 0.47609151011295636 0.08660254037844389
			vertex -0.7788249320125121 0.45103406221227443 1.2246467991473533e-17
		endloop
	endfacet
	facet normal 0.8432720016843115 -0.22727407978427894 0.4870716824385751
		outer loop
			vertex -0.7788249320125121 0.45103406221227443 1.2246467991473533e-17
			vertex -0.822092983790985 0.47609151011295636 0.08660254037844389
			vertex -0.8999988585547856 0.0014333876248381454 1.2246467991473533e-17
		endloop
	endfacet
	facet normal 0.8432720016843114 -0.227274079784279 0.48707168243857524
		outer loop
			vertex -0.822092983790985 0.47609151011295636 0.08660254037844389
			vertex -0.9499987951411626 0.001513020270662487 0.08660254037844389
			vertex -0.8999988585547856 0.0014333876248381454 1.2246467991473533e-17
		endloop
	endfacet
	facet normal 0.8439916602262693 0.2245868509841165 0.48707168243857524
		outer loop
			vertex -0.8999988585547856 0.0014333876248381454 1.2246467991473533e-17
			vertex -0.9499987951411626 0.001513020270662487 0.08660254037844389
			vertex -0.7802576605732976 -0.44855098162492607 1.2246467991473533e-17
		endloop
	endfacet
	facet normal 0.8439916602262693 0.22458685098411654 0.48707168243857485
		outer loop
			vertex -0.9499987951411626 0.001513020270662487 0.08660254037844389
			vertex -0.8236053083829252 -0.4734704806040887 0.08660254037844389
			vertex -0.7802576605732976 -0.44855098162492607 1.2246467991473533e-17
		endloop
	endfacet
	facet normal 0.6187884145470652 0.6163295175381309 0.4870716824385752
		outer loop
			vertex -0.7802576605732976 -0.44855098162492607 1.2246467991473533e-17
			vertex -0.8236053083829252 -0.4734704806040887 0.08660254037844389
			vertex -0.45165411830007857 -0.7784655146007295 1.2246467991473533e-17
		endloop
	endfacet
	facet normal 0.6187884145470652 0.6163295175381309 0.4870716824385751
		outer loop
			vertex -0.8236053083829252 -0.4734704806040887 0.08660254037844389
			vertex -0.4767460137611941 -0.8217135987452145 0.08660254037844389
			vertex -0.45165411830007857 -0.7784655146007295 1.2246467991473533e-17
		endloop
	endfacet
	facet normal 0.22794552774225835 0.8430907498892152 0.487071682438575
		outer loop
			vertex -0.45165411830007857 -0.7784655146007295 1.2246467991473533e-17
			vertex -0.4767460137611941 -0.8217135987452145 0.08660254037844389
			vertex -0.002150080301053385 -0.8999974317489462 1.2246467991473533e-17
		endloop
	endfacet
	facet normal 0.22794552774225837 0.8430907498892152 0.4870716824385751
		outer loop
			vertex -0.4767460137611941 -0.8217135987452145 0.08660254037844389
			vertex -0.002269529206667462 -0.9499972890683321 0.08660254037844389
			vertex -0.002150080301053385 -0.8999974317489462 1.2246467991473533e-17
		endloop
	endfacet
	facet normal -0.2239146866721013 0.8441702371317 0.4870716824385751
		outer loop
			vertex -0.002150080301053385 -0.8999974317489462 1.2246467991473533e-17
			vertex -0.002269529206667462 -0.9499972890683321 0.08660254037844389
			vertex 0.44792949938732035 -0.7806146063062263 1.2246467991473533e-17
		endloop
	endfacet
	facet normal -0.22391468667210104 0.8441702371316997 0.48707168243857574
		outer loop
			vertex -0.002269529206667462 -0.9499972890683321 0.08660254037844389
			vertex 0.4728144715755048 -0.8239820844343501 0.08660254037844389
			vertex 0.44792949938732035 -0.7806146063062263 1.2246467991473533e-17
		endloop
	endfacet
	facet normal -0.6158365643768653 0.6192790180063867 0.4870716824385756
		outer loop
			vertex 0.44792949938732035 -0.7806146063062263 1.2246467991473533e-17
			vertex 0.4728144715755048 -0.8239820844343501 0.08660254037844389
			vertex 0.778105603535682 -0.452273887977597 1.2246467991473533e-17
		endloop
	endfacet
	facet normal -0.6158365643768655 0.6192790180063867 0.4870716824385752
		outer loop
			vertex 0.4728144715755048 -0.8239820844343501 0.08660254037844389
			vertex 0.8213336926209978 -0.4774002150874635 0.08660254037844389
			vertex 0.778105603535682 -0.452273887977597 1.2246467991473533e-17
		endloop
	endfacet
	facet normal -0.8429089634596445 0.22861683115169695 0.4870716824385751
		outer loop
			vertex 0.778105603535682 -0.452273887977597 1.2246467991473533e-17
			vertex 0.8213336926209978 -0.4774002150874635 0.08660254037844389
			vertex 0.8999954342220378 -0.0028667716138241913 1.2246467991473533e-17
		endloop
	endfacet
	facet normal -0.8429089634596449 0.22861683115169695 0.4870716824385746
		outer loop
			vertex 0.8213336926209978 -0.4774002150874635 0.08660254037844389
			vertex 0.9499951805677065 -0.0030260367034810913 0.08660254037844389
			vertex 0.8999954342220378 -0.0028667716138241913 1.2246467991473533e-17
		endloop
	endfacet
	facet normal -0.8436329009116655 -0.2259307519259485 -0.4870716824385744
		outer loop
			vertex 0.95 0 -0.08660254037844384
			vertex 0.9 0 1.2246467991473533e-17
			vertex 0.8228501896851897 0.4747815975109473 -0.08660254037844384
		endloop
	endfacet
	facet normal -0.843632900911666 -0.22593075192594844 -0.48707168243857396
		outer loop
			vertex 0.9 0 1.2246467991473533e-17
			vertex 0.7795422849649167 0.44979309237879217 1.2246467991473533e-17
			vertex 0.8228501896851897 0.4747815975109473 -0.08660254037844384
		endloop
	endfacet
	facet normal -0.6178060307511366 -0.6173142510374944 -0.4870716824385742
		outer loop
			vertex 0.8228501896851897 0.4747815975109473 -0.08660254037844384
			vertex 0.7795422849649167 0.44979309237879217 1.2246467991473533e-17
			vertex 0.4754367045577955 0.8224718475177271 -0.08660254037844384
		endloop
	endfacet
	facet normal -0.6178060307511365 -0.6173142510374944 -0.4870716824385741
		outer loop
			vertex 0.7795422849649167 0.44979309237879217 1.2246467991473533e-17
			vertex 0.45041372010738523 0.77918385554311 1.2246467991473533e-17
			vertex 0.4754367045577955 0.8224718475177271 -0.08660254037844384
		endloop
	endfacet
	facet normal -0.226602487703549 -0.8434527187299952 -0.48707168243857396
		outer loop
			vertex 0.4754367045577955 0.8224718475177271 -0.08660254037844384
			vertex 0.45041372010738523 0.77918385554311 1.2246467991473533e-17
			vertex 0.0007565103751966002 0.9499996987852428 -0.08660254037844384
		endloop
	endfacet
	facet normal -0.22660248770354874 -0.8434527187299948 -0.4870716824385746
		outer loop
			vertex 0.45041372010738523 0.77918385554311 1.2246467991473533e-17
			vertex 0.000716694039659937 0.8999997146386511 1.2246467991473533e-17
			vertex 0.0007565103751966002 0.9499996987852428 -0.08660254037844384
		endloop
	endfacet
	facet normal 0.22525887287744986 -0.8438125481150641 -0.4870716824385746
		outer loop
			vertex 0.0007565103751966002 0.9499996987852428 -0.08660254037844384
			vertex 0.000716694039659937 0.8999997146386511 1.2246467991473533e-17
			vertex -0.4741261893878388 0.8232280100534525 -0.08660254037844384
		endloop
	endfacet
	facet normal 0.22525887287744986 -0.843812548115064 -0.4870716824385749
		outer loop
			vertex 0.000716694039659937 0.8999997146386511 1.2246467991473533e-17
			vertex -0.4491721794200578 0.7799002200506392 1.2246467991473533e-17
			vertex -0.4741261893878388 0.8232280100534525 -0.08660254037844384
		endloop
	endfacet
	facet normal 0.6168220798624579 -0.618297418691529 -0.48707168243857474
		outer loop
			vertex -0.4741261893878388 0.8232280100534525 -0.08660254037844384
			vertex -0.4491721794200578 0.7799002200506392 1.2246467991473533e-17
			vertex -0.8220929837909849 0.4760915101129563 -0.08660254037844384
		endloop
	endfacet
	facet normal 0.616822079862458 -0.6182974186915293 -0.4870716824385743
		outer loop
			vertex -0.4491721794200578 0.7799002200506392 1.2246467991473533e-17
			vertex -0.7788249320125121 0.45103406221227443 1.2246467991473533e-17
			vertex -0.8220929837909849 0.4760915101129563 -0.08660254037844384
		endloop
	endfacet
	facet normal 0.8432720016843118 -0.22727407978427908 -0.4870716824385743
		outer loop
			vertex -0.8220929837909849 0.4760915101129563 -0.08660254037844384
			vertex -0.7788249320125121 0.45103406221227443 1.2246467991473533e-17
			vertex -0.9499987951411625 0.0015130202706624867 -0.08660254037844384
		endloop
	endfacet
	facet normal 0.8432720016843117 -0.227274079784279 -0.4870716824385745
		outer loop
			vertex -0.7788249320125121 0.45103406221227443 1.2246467991473533e-17
			vertex -0.8999988585547856 0.0014333876248381454 1.2246467991473533e-17
			vertex -0.9499987951411625 0.0015130202706624867 -0.08660254037844384
		endloop
	endfacet
	facet normal 0.8439916602262695 0.22458685098411643 -0.48707168243857446
		outer loop
			vertex -0.9499987951411625 0.0015130202706624867 -0.08660254037844384
			vertex -0.8999988585547856 0.0014333876248381454 1.2246467991473533e-17
			vertex -0.8236053083829252 -0.47347048060408864 -0.08660254037844384
		endloop
	endfacet
	facet normal 0.8439916602262695 0.22458685098411654 -0.48707168243857496
		outer loop
			vertex -0.8999988585547856 0.0014333876248381454 1.2246467991473533e-17
			vertex -0.7802576605732976 -0.44855098162492607 1.2246467991473533e-17
			vertex -0.8236053083829252 -0.47347048060408864 -0.08660254037844384
		endloop
	endfacet
	facet normal 0.6187884145470652 0.616329517538131 -0.4870716824385749
		outer loop
			vertex -0.8236053083829252 -0.47347048060408864 -0.08660254037844384
			vertex -0.7802576605732976 -0.44855098162492607 1.2246467991473533e-17
			vertex -0.476746013761194 -0.8217135987452144 -0.08660254037844384
		endloop
	endfacet
	facet normal 0.6187884145470656 0.6163295175381311 -0.48707168243857435
		outer loop
			vertex -0.7802576605732976 -0.44855098162492607 1.2246467991473533e-17
			vertex -0.45165411830007857 -0.7784655146007295 1.2246467991473533e-17
			vertex -0.476746013761194 -0.8217135987452144 -0.08660254037844384
		endloop
	endfacet
	facet normal 0.22794552774225854 0.8430907498892158 -0.4870716824385743
		outer loop
			vertex -0.476746013761194 -0.8217135987452144 -0.08660254037844384
			vertex -0.45165411830007857 -0.7784655146007295 1.2246467991473533e-17
			vertex -0.0022695292066674615 -0.949997289068332 -0.08660254037844384
		endloop
	endfacet
	facet normal 0.2279455277422585 0.8430907498892157 -0.4870716824385745
		outer loop
			vertex -0.45165411830007857 -0.7784655146007295 1.2246467991473533e-17
			vertex -0.002150080301053385 -0.8999974317489462 1.2246467991473533e-17
			vertex -0.0022695292066674615 -0.949997289068332 -0.08660254037844384
		endloop
	endfacet
	facet normal -0.22391468667210124 0.8441702371317004 -0.4870716824385744
		outer loop
			vertex -0.0022695292066674615 -0.949997289068332 -0.08660254037844384
			vertex -0.002150080301053385 -0.8999974317489462 1.2246467991473533e-17
			vertex 0.47281447157550477 -0.82398208443435 -0.08660254037844384
		endloop
	endfacet
	facet normal -0.22391468667210127 0.8441702371317001 -0.48707168243857496
		outer loop
			vertex -0.002150080301053385 -0.8999974317489462 1.2246467991473533e-17
			vertex 0.44792949938732035 -0.7806146063062263 1.2246467991473533e-17
			vertex 0.47281447157550477 -0.82398208443435 -0.08660254037844384
		endloop
	endfacet
	facet normal -0.6158365643768657 0.619279018006387 -0.48707168243857474
		outer loop
			vertex 0.47281447157550477 -0.82398208443435 -0.08660254037844384
			vertex 0.44792949938732035 -0.7806146063062263 1.2246467991473533e-17
			vertex 0.8213336926209976 -0.47740021508746344 -0.08660254037844384
		endloop
	endfacet
	facet normal -0.6158365643768657 0.6192790180063871 -0.48707168243857435
		outer loop
			vertex 0.44792949938732035 -0.7806146063062263 1.2246467991473533e-17
			vertex 0.778105603535682 -0.452273887977597 1.2246467991473533e-17
			vertex 0.8213336926209976 -0.47740021508746344 -0.08660254037844384
		endloop
	endfacet
	facet normal -0.8429089634596449 0.22861683115169693 -0.4870716824385744
		outer loop
			vertex 0.8213336926209976 -0.47740021508746344 -0.08660254037844384
			vertex 0.778105603535682 -0.452273887977597 1.2246467991473533e-17
			vertex 0.9499951805677064 -0.003026036703481091 -0.08660254037844384
		endloop
	endfacet
	facet normal -0.8429089634596454 0.22861683115169718 -0.48707168243857385
		outer loop
			vertex 0.778105603535682 -0.452273887977597 1.2246467991473533e-17
			vertex 0.8999954342220378 -0.0028667716138241913 1.2246467991473533e-17
			vertex 0.9499951805677064 -0.003026036703481091 -0.08660254037844384
		endloop
	endfacet
	facet normal -2.775557561562889e-16 -7.43313597916821e-17 -1
		outer loop
			vertex 1.05 0 -0.08660254037844387
			vertex 0.95 0 -0.08660254037844384
			vertex 0.9094659991257362 0.5247586077752575 -0.08660254037844387
		endloop
	endfacet
	facet normal -2.7755575615628864e-16 -7.433135979168209e-17 -1
		outer loop
			vertex 0.95 0 -0.08660254037844384
			vertex 0.8228501896851897 0.4747815975109473 -0.08660254037844384
			vertex 0.9094659991257362 0.5247586077752575 -0.08660254037844387
		endloop
	endfacet
	facet normal -2.032585735309081e-16 -2.030967776951426e-16 -1
		outer loop
			vertex 0.9094659991257362 0.5247586077752575 -0.08660254037844387
			vertex 0.8228501896851897 0.4747815975109473 -0.08660254037844384
			vertex 0.5254826734586161 0.9090478314669617 -0.08660254037844387
		endloop
	endfacet
	facet normal -2.0325857353090807e-16 -2.030967776951426e-16 -1
		outer loop
			vertex 0.8228501896851897 0.4747815975109473 -0.08660254037844384
			vertex 0.4754367045577955 0.8224718475177271 -0.08660254037844384
			vertex 0.5254826734586161 0.9090478314669617 -0.08660254037844387
		endloop
	endfacet
	facet normal -7.455236128591926e-17 -2.7749647610494713e-16 -1
		outer loop
			vertex 0.5254826734586161 0.9090478314669617 -0.08660254037844387
			vertex 0.4754367045577955 0.8224718475177271 -0.08660254037844384
			vertex 0.0008361430462699265 1.0499996670784264 -0.08660254037844387
		endloop
	endfacet
	facet normal -7.455236128591931e-17 -2.774964761049472e-16 -1
		outer loop
			vertex 0.4754367045577955 0.8224718475177271 -0.08660254037844384
			vertex 0.0007565103751966002 0.9499996987852428 -0.08660254037844384
			vertex 0.0008361430462699265 1.0499996670784264 -0.08660254037844387
		endloop
	endfacet
	facet normal 7.41103111612292e-17 -2.776148601994417e-16 -1
		outer loop
			vertex 0.0008361430462699265 1.0499996670784264 -0.08660254037844387
			vertex 0.0007565103751966002 0.9499996987852428 -0.08660254037844384
			vertex -0.5240342093234008 0.909883590059079 -0.08660254037844387
		endloop
	endfacet
	facet normal 7.411031116122924e-17 -2.7761486019944203e-16 -1
		outer loop
			vertex 0.0007565103751966002 0.9499996987852428 -0.08660254037844384
			vertex -0.4741261893878388 0.8232280100534525 -0.08660254037844384
			vertex -0.5240342093234008 0.909883590059079 -0.08660254037844387
		endloop
	endfacet
	facet normal 2.0293485306833185e-16 -2.0342024047302779e-16 -1
		outer loop
			vertex -0.5240342093234008 0.909883590059079 -0.08660254037844387
			vertex -0.4741261893878388 0.8232280100534525 -0.08660254037844384
			vertex -0.9086290873479308 0.5262064059143202 -0.08660254037844387
		endloop
	endfacet
	facet normal 2.0293485306833175e-16 -2.0342024047302761e-16 -1
		outer loop
			vertex -0.4741261893878388 0.8232280100534525 -0.08660254037844384
			vertex -0.8220929837909849 0.4760915101129563 -0.08660254037844384
			vertex -0.9086290873479308 0.5262064059143202 -0.08660254037844387
		endloop
	endfacet
	facet normal 2.7743702008300855e-16 -7.477331550379558e-17 -1
		outer loop
			vertex -0.9086290873479308 0.5262064059143202 -0.08660254037844387
			vertex -0.8220929837909849 0.4760915101129563 -0.08660254037844384
			vertex -1.0499986683139164 0.0016722855623111698 -0.08660254037844387
		endloop
	endfacet
	facet normal 2.7743702008300875e-16 -7.477331550379569e-17 -1
		outer loop
			vertex -0.8220929837909849 0.4760915101129563 -0.08660254037844384
			vertex -0.9499987951411625 0.0015130202706624867 -0.08660254037844384
			vertex -1.0499986683139164 0.0016722855623111698 -0.08660254037844387
		endloop
	endfacet
	facet normal 2.7767378819692606e-16 7.388921553473557e-17 -1
		outer loop
			vertex -1.0499986683139164 0.0016722855623111698 -0.08660254037844387
			vertex -0.9499987951411625 0.0015130202706624867 -0.08660254037844384
			vertex -0.9103006040021805 -0.5233094785624138 -0.08660254037844387
		endloop
	endfacet
	facet normal 2.7767378819692606e-16 7.388921553473557e-17 -1
		outer loop
			vertex -0.9499987951411625 0.0015130202706624867 -0.08660254037844384
			vertex -0.8236053083829252 -0.47347048060408864 -0.08660254037844384
			vertex -0.9103006040021805 -0.5233094785624138 -0.08660254037844387
		endloop
	endfacet
	facet normal 2.0358177841898233e-16 2.0277279975315783e-16 -1
		outer loop
			vertex -0.9103006040021805 -0.5233094785624138 -0.08660254037844387
			vertex -0.8236053083829252 -0.47347048060408864 -0.08660254037844384
			vertex -0.526929804683425 -0.9082097670341844 -0.08660254037844387
		endloop
	endfacet
	facet normal 2.0358177841898233e-16 2.0277279975315786e-16 -1
		outer loop
			vertex -0.8236053083829252 -0.47347048060408864 -0.08660254037844384
			vertex -0.476746013761194 -0.8217135987452144 -0.08660254037844384
			vertex -0.526929804683425 -0.9082097670341844 -0.08660254037844387
		endloop
	endfacet
	facet normal 7.499422230519604e-17 2.7737738812817577e-16 -1
		outer loop
			vertex -0.526929804683425 -0.9082097670341844 -0.08660254037844387
			vertex -0.476746013761194 -0.8217135987452144 -0.08660254037844384
			vertex -0.0025084270178956157 -1.0499970037071038 -0.08660254037844387
		endloop
	endfacet
	facet normal 7.499422230519614e-17 2.77377388128176e-16 -1
		outer loop
			vertex -0.476746013761194 -0.8217135987452144 -0.08660254037844384
			vertex -0.0022695292066674615 -0.949997289068332 -0.08660254037844384
			vertex -0.0025084270178956157 -1.0499970037071038 -0.08660254037844387
		endloop
	endfacet
	facet normal -7.36680730524058e-17 2.777325401113729e-16 -1
		outer loop
			vertex -0.0025084270178956157 -1.0499970037071038 -0.08660254037844387
			vertex -0.0022695292066674615 -0.949997289068332 -0.08660254037844384
			vertex 0.5225844159518738 -0.9107170406905973 -0.08660254037844387
		endloop
	endfacet
	facet normal -7.36680730524058e-17 2.777325401113728e-16 -1
		outer loop
			vertex -0.0022695292066674615 -0.949997289068332 -0.08660254037844384
			vertex 0.47281447157550477 -0.82398208443435 -0.08660254037844384
			vertex 0.5225844159518738 -0.9107170406905973 -0.08660254037844387
		endloop
	endfacet
	facet normal -2.0261061785238458e-16 2.0374318726633491e-16 -1
		outer loop
			vertex 0.5225844159518738 -0.9107170406905973 -0.08660254037844387
			vertex 0.47281447157550477 -0.82398208443435 -0.08660254037844384
			vertex 0.9077898707916291 -0.5276528693071965 -0.08660254037844387
		endloop
	endfacet
	facet normal -2.0261061785238453e-16 2.0374318726633484e-16 -1
		outer loop
			vertex 0.47281447157550477 -0.82398208443435 -0.08660254037844384
			vertex 0.8213336926209976 -0.47740021508746344 -0.08660254037844384
			vertex 0.9077898707916291 -0.5276528693071965 -0.08660254037844387
		endloop
	endfacet
	facet normal -2.7731758027826376e-16 7.521508155003536e-17 -1
		outer loop
			vertex 0.9077898707916291 -0.5276528693071965 -0.08660254037844387
			vertex 0.8213336926209976 -0.47740021508746344 -0.08660254037844384
			vertex 1.049994673259044 -0.00334456688279489 -0.08660254037844387
		endloop
	endfacet
	facet normal -2.77317580278264e-16 7.521508155003545e-17 -1
		outer loop
			vertex 0.8213336926209976 -0.47740021508746344 -0.08660254037844384
			vertex 0.9499951805677064 -0.003026036703481091 -0.08660254037844384
			vertex 1.049994673259044 -0.00334456688279489 -0.08660254037844387
		endloop
	endfacet
	facet normal 0.8436329009116651 0.22593075192594836 -0.4870716824385753
		outer loop
			vertex 1.1 0 -2.4492935982947065e-17
			vertex 1.05 0 -0.08660254037844387
			vertex 0.9527739038460094 0.5497471129074126 -2.4492935982947065e-17
		endloop
	endfacet
	facet normal 0.8436329009116654 0.2259307519259483 -0.4870716824385748
		outer loop
			vertex 1.05 0 -0.08660254037844387
			vertex 0.9094659991257362 0.5247586077752575 -0.08660254037844387
			vertex 0.9527739038460094 0.5497471129074126 -2.4492935982947065e-17
		endloop
	endfacet
	facet normal 0.6178060307511362 0.6173142510374942 -0.48707168243857485
		outer loop
			vertex 0.9527739038460094 0.5497471129074126 -2.4492935982947065e-17
			vertex 0.9094659991257362 0.5247586077752575 -0.08660254037844387
			vertex 0.5505056579090264 0.9523358234415789 -2.4492935982947065e-17
		endloop
	endfacet
	facet normal 0.6178060307511363 0.6173142510374942 -0.48707168243857485
		outer loop
			vertex 0.9094659991257362 0.5247586077752575 -0.08660254037844387
			vertex 0.5254826734586161 0.9090478314669617 -0.08660254037844387
			vertex 0.5505056579090264 0.9523358234415789 -2.4492935982947065e-17
		endloop
	endfacet
	facet normal 0.22660248770354874 0.8434527187299946 -0.48707168243857474
		outer loop
			vertex 0.5505056579090264 0.9523358234415789 -2.4492935982947065e-17
			vertex 0.5254826734586161 0.9090478314669617 -0.08660254037844387
			vertex 0.0008759593818065898 1.099999651225018 -2.4492935982947065e-17
		endloop
	endfacet
	facet normal 0.22660248770354877 0.8434527187299946 -0.48707168243857457
		outer loop
			vertex 0.5254826734586161 0.9090478314669617 -0.08660254037844387
			vertex 0.0008361430462699265 1.0499996670784264 -0.08660254037844387
			vertex 0.0008759593818065898 1.099999651225018 -2.4492935982947065e-17
		endloop
	endfacet
	facet normal -0.22525887287744983 0.843812548115064 -0.4870716824385746
		outer loop
			vertex 0.0008759593818065898 1.099999651225018 -2.4492935982947065e-17
			vertex 0.0008361430462699265 1.0499996670784264 -0.08660254037844387
			vertex -0.5489882192911818 0.9532113800618924 -2.4492935982947065e-17
		endloop
	endfacet
	facet normal -0.22525887287744986 0.8438125481150633 -0.4870716824385757
		outer loop
			vertex 0.0008361430462699265 1.0499996670784264 -0.08660254037844387
			vertex -0.5240342093234008 0.909883590059079 -0.08660254037844387
			vertex -0.5489882192911818 0.9532113800618924 -2.4492935982947065e-17
		endloop
	endfacet
	facet normal -0.6168220798624576 0.6182974186915288 -0.48707168243857546
		outer loop
			vertex -0.5489882192911818 0.9532113800618924 -2.4492935982947065e-17
			vertex -0.5240342093234008 0.909883590059079 -0.08660254037844387
			vertex -0.9518971391264037 0.5512638538150021 -2.4492935982947065e-17
		endloop
	endfacet
	facet normal -0.6168220798624577 0.618297418691529 -0.48707168243857496
		outer loop
			vertex -0.5240342093234008 0.909883590059079 -0.08660254037844387
			vertex -0.9086290873479308 0.5262064059143202 -0.08660254037844387
			vertex -0.9518971391264037 0.5512638538150021 -2.4492935982947065e-17
		endloop
	endfacet
	facet normal -0.8432720016843115 0.22727407978427888 -0.4870716824385752
		outer loop
			vertex -0.9518971391264037 0.5512638538150021 -2.4492935982947065e-17
			vertex -0.9086290873479308 0.5262064059143202 -0.08660254037844387
			vertex -1.0999986049002934 0.001751918208135511 -2.4492935982947065e-17
		endloop
	endfacet
	facet normal -0.8432720016843113 0.22727407978427877 -0.4870716824385754
		outer loop
			vertex -0.9086290873479308 0.5262064059143202 -0.08660254037844387
			vertex -1.0499986683139164 0.0016722855623111698 -0.08660254037844387
			vertex -1.0999986049002934 0.001751918208135511 -2.4492935982947065e-17
		endloop
	endfacet
	facet normal -0.8439916602262691 -0.22458685098411627 -0.48707168243857535
		outer loop
			vertex -1.0999986049002934 0.001751918208135511 -2.4492935982947065e-17
			vertex -1.0499986683139164 0.0016722855623111698 -0.08660254037844387
			vertex -0.9536482518118082 -0.5482289775415764 -2.4492935982947065e-17
		endloop
	endfacet
	facet normal -0.8439916602262689 -0.2245868509841163 -0.48707168243857574
		outer loop
			vertex -1.0499986683139164 0.0016722855623111698 -0.08660254037844387
			vertex -0.9103006040021805 -0.5233094785624138 -0.08660254037844387
			vertex -0.9536482518118082 -0.5482289775415764 -2.4492935982947065e-17
		endloop
	endfacet
	facet normal -0.618788414547065 -0.6163295175381308 -0.4870716824385755
		outer loop
			vertex -0.9536482518118082 -0.5482289775415764 -2.4492935982947065e-17
			vertex -0.9103006040021805 -0.5233094785624138 -0.08660254037844387
			vertex -0.5520217001445406 -0.9514578511786694 -2.4492935982947065e-17
		endloop
	endfacet
	facet normal -0.6187884145470649 -0.6163295175381308 -0.4870716824385757
		outer loop
			vertex -0.9103006040021805 -0.5233094785624138 -0.08660254037844387
			vertex -0.526929804683425 -0.9082097670341844 -0.08660254037844387
			vertex -0.5520217001445406 -0.9514578511786694 -2.4492935982947065e-17
		endloop
	endfacet
	facet normal -0.22794552774225843 -0.8430907498892152 -0.4870716824385754
		outer loop
			vertex -0.5520217001445406 -0.9514578511786694 -2.4492935982947065e-17
			vertex -0.526929804683425 -0.9082097670341844 -0.08660254037844387
			vertex -0.0026278759235096928 -1.0999968610264899 -2.4492935982947065e-17
		endloop
	endfacet
	facet normal -0.22794552774225818 -0.8430907498892148 -0.48707168243857624
		outer loop
			vertex -0.526929804683425 -0.9082097670341844 -0.08660254037844387
			vertex -0.0025084270178956157 -1.0499970037071038 -0.08660254037844387
			vertex -0.0026278759235096928 -1.0999968610264899 -2.4492935982947065e-17
		endloop
	endfacet
	facet normal 0.22391468667210113 -0.8441702371316996 -0.4870716824385762
		outer loop
			vertex -0.0026278759235096928 -1.0999968610264899 -2.4492935982947065e-17
			vertex -0.0025084270178956157 -1.0499970037071038 -0.08660254037844387
			vertex 0.5474693881400582 -0.954084518818721 -2.4492935982947065e-17
		endloop
	endfacet
	facet normal 0.2239146866721011 -0.8441702371317003 -0.487071682438575
		outer loop
			vertex -0.0025084270178956157 -1.0499970037071038 -0.08660254037844387
			vertex 0.5225844159518738 -0.9107170406905973 -0.08660254037844387
			vertex 0.5474693881400582 -0.954084518818721 -2.4492935982947065e-17
		endloop
	endfacet
	facet normal 0.6158365643768656 -0.6192790180063871 -0.48707168243857485
		outer loop
			vertex 0.5474693881400582 -0.954084518818721 -2.4492935982947065e-17
			vertex 0.5225844159518738 -0.9107170406905973 -0.08660254037844387
			vertex 0.9510179598769448 -0.552779196417063 -2.4492935982947065e-17
		endloop
	endfacet
	facet normal 0.6158365643768654 -0.6192790180063866 -0.48707168243857535
		outer loop
			vertex 0.5225844159518738 -0.9107170406905973 -0.08660254037844387
			vertex 0.9077898707916291 -0.5276528693071965 -0.08660254037844387
			vertex 0.9510179598769448 -0.552779196417063 -2.4492935982947065e-17
		endloop
	endfacet
	facet normal 0.8429089634596445 -0.2286168311516969 -0.48707168243857546
		outer loop
			vertex 0.9510179598769448 -0.552779196417063 -2.4492935982947065e-17
			vertex 0.9077898707916291 -0.5276528693071965 -0.08660254037844387
			vertex 1.099994419604713 -0.00350383197245179 -2.4492935982947065e-17
		endloop
	endfacet
	facet normal 0.8429089634596441 -0.22861683115169662 -0.4870716824385764
		outer loop
			vertex 0.9077898707916291 -0.5276528693071965 -0.08660254037844387
			vertex 1.049994673259044 -0.00334456688279489 -0.08660254037844387
			vertex 1.099994419604713 -0.00350383197245179 -2.4492935982947065e-17
		endloop
	endfacet
endsolid exported